
<global>
ampeg_release=0.25
</global>

<group>
group_label=Group

<region>
hikey=B1
hivel=127
lokey=A#1
loop_end=141919
loop_mode=loop_continuous
loop_start=54434
loop_xfade=10600
lovel=0
offset=8235
pitch_keycenter=A#1
sample=Precisionbass_HalfTrill_MP_A#2.opus
</region>

<region>
hikey=B2
hivel=127
lokey=A#2
loop_end=137570
loop_mode=loop_continuous
loop_start=52765
loop_xfade=10276
lovel=0
offset=1523
pitch_keycenter=A#2
sample=Precisionbass_HalfTrill_MP_A#3.opus
</region>

<region>
hikey=B3
hivel=127
lokey=A#3
loop_end=143257
loop_mode=loop_continuous
loop_start=54947
loop_xfade=10700
lovel=0
offset=8780
pitch_keycenter=A#3
sample=Precisionbass_HalfTrill_MP_A#4.opus
</region>

<region>
hikey=C#2
hivel=127
lokey=C2
loop_end=138371
loop_mode=loop_continuous
loop_start=53073
loop_xfade=10335
lovel=0
offset=290
pitch_keycenter=C2
sample=Precisionbass_HalfTrill_MP_C3.opus
</region>

<region>
hikey=C#3
hivel=127
lokey=C3
loop_end=136663
loop_mode=loop_continuous
loop_start=52417
loop_xfade=10208
lovel=0
offset=391
pitch_keycenter=C3
sample=Precisionbass_HalfTrill_MP_C4.opus
</region>

<region>
hikey=C#4
hivel=127
lokey=C4
loop_end=143257
loop_mode=loop_continuous
loop_start=54947
loop_xfade=10700
lovel=0
offset=7898
sample=Precisionbass_HalfTrill_MP_C5.opus
</region>

<region>
hikey=D#1
hivel=127
lokey=D1
loop_end=114441
loop_mode=loop_continuous
loop_start=35651
loop_xfade=10218
lovel=0
offset=672
pitch_keycenter=D1
sample=Precisionbass_HalfTrill_MP_D2.opus
</region>

<region>
hikey=D#2
hivel=127
lokey=D2
loop_end=136898
loop_mode=loop_continuous
loop_start=52508
loop_xfade=10225
lovel=0
offset=31
pitch_keycenter=D2
sample=Precisionbass_HalfTrill_MP_D3.opus
</region>

<region>
hikey=D#3
hivel=127
lokey=D3
loop_end=138160
loop_mode=loop_continuous
loop_start=52991
loop_xfade=10320
lovel=0
offset=2577
pitch_keycenter=D3
sample=Precisionbass_HalfTrill_MP_D4.opus
</region>

<region>
hivel=127
key=D4
loop_end=143257
loop_mode=loop_continuous
loop_start=54947
loop_xfade=10700
lovel=0
offset=6963
sample=Precisionbass_HalfTrill_MP_D5.opus
</region>

<region>
hikey=F1
hivel=127
lokey=E1
loop_end=123188
loop_mode=loop_continuous
loop_start=48594
loop_xfade=10700
lovel=0
offset=6800
pitch_keycenter=E1
sample=Precisionbass_HalfTrill_MP_E2.opus
</region>

<region>
hikey=F2
hivel=127
lokey=E2
loop_end=136933
loop_mode=loop_continuous
loop_start=52521
loop_xfade=10228
lovel=0
pitch_keycenter=E2
sample=Precisionbass_HalfTrill_MP_E3.opus
</region>

<region>
hikey=F3
hivel=127
lokey=E3
loop_end=136200
loop_mode=loop_continuous
loop_start=52240
loop_xfade=10173
lovel=0
offset=660
pitch_keycenter=E3
sample=Precisionbass_HalfTrill_MP_E4.opus
</region>

<region>
hikey=G1
hivel=127
lokey=F#1
loop_end=135921
loop_mode=loop_continuous
loop_start=52133
loop_xfade=10152
lovel=0
pitch_keycenter=F#1
sample=Precisionbass_HalfTrill_MP_F#2.opus
</region>

<region>
hikey=G2
hivel=127
lokey=F#2
loop_end=138330
loop_mode=loop_continuous
loop_start=53057
loop_xfade=10332
lovel=0
offset=6
pitch_keycenter=F#2
sample=Precisionbass_HalfTrill_MP_F#3.opus
</region>

<region>
hikey=G3
hivel=127
lokey=F#3
loop_end=140850
loop_mode=loop_continuous
loop_start=54023
loop_xfade=10521
lovel=0
offset=5959
pitch_keycenter=F#3
sample=Precisionbass_HalfTrill_MP_F#4.opus
</region>

<region>
hikey=A1
hivel=127
lokey=G#1
loop_end=142673
loop_mode=loop_continuous
loop_start=54723
loop_xfade=10657
lovel=0
offset=6393
pitch_keycenter=G#1
sample=Precisionbass_HalfTrill_MP_G#2.opus
</region>

<region>
hikey=A2
hivel=127
lokey=G#2
loop_end=143257
loop_mode=loop_continuous
loop_start=54947
loop_xfade=10700
lovel=0
offset=6698
pitch_keycenter=G#2
sample=Precisionbass_HalfTrill_MP_G#3.opus
</region>

<region>
hikey=A3
hivel=127
lokey=G#3
loop_end=143257
loop_mode=loop_continuous
loop_start=54947
loop_xfade=10700
lovel=0
offset=6985
pitch_keycenter=G#3
sample=Precisionbass_HalfTrill_MP_G#4.opus
</region>
</group>